<svg width="28" height="29" viewBox="0 0 28 29" fill="none" xmlns="http://www.w3.org/2000/svg">
<path d="M11.667 6.33333C11.667 5.71449 11.9128 5.121 12.3504 4.68342C12.788 4.24583 13.3815 4 14.0003 4C14.6192 4 15.2127 4.24583 15.6502 4.68342C16.0878 5.121 16.3337 5.71449 16.3337 6.33333C17.6735 6.96687 18.8156 7.95305 19.6377 9.18618C20.4598 10.4193 20.9308 11.8529 21.0003 13.3333V16.8333C21.0881 17.5587 21.345 18.2532 21.7503 18.8611C22.1555 19.4691 22.6979 19.9733 23.3337 20.3333H4.66699C5.30275 19.9733 5.8451 19.4691 6.25038 18.8611C6.65565 18.2532 6.91253 17.5587 7.00033 16.8333V13.3333C7.06981 11.8529 7.54084 10.4193 8.36293 9.18618C9.18502 7.95305 10.3272 6.96687 11.667 6.33333" stroke="#1A202C" stroke-width="1.5" stroke-linecap="round" stroke-linejoin="round"/>
<path d="M10.5 20.334V21.5007C10.5 22.4289 10.8687 23.3191 11.5251 23.9755C12.1815 24.6319 13.0717 25.0007 14 25.0007C14.9283 25.0007 15.8185 24.6319 16.4749 23.9755C17.1313 23.3191 17.5 22.4289 17.5 21.5007V20.334" stroke="#1A202C" stroke-width="1.5" stroke-linecap="round" stroke-linejoin="round"/>
</svg>
