<svg width="20" height="21" viewBox="0 0 20 21" fill="none" xmlns="http://www.w3.org/2000/svg">
<path d="M1.66699 10.2005C1.66699 12.4107 2.54497 14.5303 4.10777 16.0931C5.67057 17.6559 7.79019 18.5339 10.0003 18.5339C12.2105 18.5339 14.3301 17.6559 15.8929 16.0931C17.4557 14.5303 18.3337 12.4107 18.3337 10.2005C18.3337 7.99038 17.4557 5.87077 15.8929 4.30796C14.3301 2.74516 12.2105 1.86719 10.0003 1.86719C7.79019 1.86719 5.67057 2.74516 4.10777 4.30796C2.54497 5.87077 1.66699 7.99038 1.66699 10.2005V10.2005Z" stroke="#718096" stroke-width="1.5" stroke-linecap="round" stroke-linejoin="round"/>
<path d="M8.33399 11.8672C8.33399 12.1968 8.43173 12.5191 8.61487 12.7931C8.798 13.0672 9.0583 13.2808 9.36285 13.407C9.66739 13.5331 10.0025 13.5661 10.3258 13.5018C10.6491 13.4375 10.9461 13.2788 11.1792 13.0457C11.4123 12.8126 11.571 12.5156 11.6353 12.1923C11.6996 11.869 11.6666 11.5339 11.5405 11.2294C11.4143 10.9248 11.2007 10.6645 10.9266 10.4814C10.6525 10.2983 10.3303 10.2005 10.0007 10.2005C9.67102 10.2005 9.34878 10.1028 9.0747 9.91964C8.80062 9.7365 8.587 9.4762 8.46085 9.17166C8.33471 8.86712 8.3017 8.53201 8.36601 8.2087C8.43032 7.8854 8.58905 7.58843 8.82214 7.35534C9.05523 7.12226 9.3522 6.96352 9.6755 6.89921C9.9988 6.8349 10.3339 6.86791 10.6385 6.99406C10.943 7.1202 11.2033 7.33382 11.3864 7.6079C11.5696 7.88199 11.6673 8.20422 11.6673 8.53385" stroke="#718096" stroke-width="1.5" stroke-linecap="round" stroke-linejoin="round"/>
<path d="M10 5.75586V6.86697" stroke="#718096" stroke-width="1.5" stroke-linecap="round" stroke-linejoin="round"/>
<path d="M10 13.5332V14.6443" stroke="#718096" stroke-width="1.5" stroke-linecap="round" stroke-linejoin="round"/>
</svg>
