<svg width="20" height="22" viewBox="0 0 20 22" fill="none" xmlns="http://www.w3.org/2000/svg">
<g clip-path="url(#clip0_1577_30753)">
<path d="M13.689 22H2.91725C2.89895 21.9898 2.88182 21.974 2.86235 21.9697C1.37571 21.6455 0.500006 20.55 0.500006 19.0128C0.500006 14.5764 0.500006 10.1404 0.500006 5.70432C0.500006 5.58996 0.499617 5.4752 0.505068 5.36084C0.568536 4.02912 1.65996 2.8855 2.96709 2.79441C3.27275 2.77311 3.58114 2.79125 3.88407 2.79125C3.94754 1.21307 5.29907 -0.0267707 6.8188 0.000439415C9.39725 0.0465784 11.9769 0.0114812 14.5561 0.0185795C14.6585 0.0185795 14.7924 0.0737885 14.859 0.150292C16.3745 1.89687 17.8841 3.64936 19.3886 5.4054C19.4541 5.48151 19.493 5.60652 19.4946 5.70944C19.5039 6.36762 19.4992 7.02579 19.4992 7.68435C19.4992 10.5966 19.5008 13.5085 19.4984 16.4208C19.4973 17.7943 18.4876 19.001 17.1501 19.2112C16.8121 19.2644 16.464 19.2518 16.1144 19.27C16.0583 20.2038 15.637 20.9298 14.9069 21.4834C14.5432 21.7591 14.1227 21.894 13.6893 22H13.689ZM13.3923 1.38737H13.1357C11.0229 1.38737 8.90975 1.38737 6.797 1.38737C5.8368 1.38737 5.24962 1.97889 5.24962 2.94663C5.24962 7.40436 5.24962 11.8625 5.24962 16.3202C5.24962 17.2777 5.83796 17.8775 6.77753 17.8775C10.0565 17.8775 13.335 17.8775 16.6139 17.8775C17.5449 17.8775 18.1415 17.2777 18.1415 16.3411C18.1415 13.2715 18.1415 10.2019 18.1415 7.13187V6.88382C17.7957 6.88382 17.4725 6.88619 17.149 6.88343C16.7039 6.87948 16.2526 6.91852 15.8153 6.8574C14.3813 6.65746 13.3926 5.47599 13.3919 4.01177C13.3915 3.14696 13.3919 2.28175 13.3919 1.38697L13.3923 1.38737ZM14.7418 19.2518H14.4794C11.9002 19.2518 9.32132 19.2518 6.7421 19.251C6.59413 19.251 6.44383 19.251 6.2986 19.2274C4.87893 18.9931 3.89303 17.8128 3.89303 16.3518C3.89303 12.3736 3.89303 8.39536 3.89303 4.41716V4.11745C3.52468 4.14742 3.1793 4.1352 2.85417 4.21131C2.23039 4.35682 1.85776 4.91562 1.85776 5.62979C1.85698 10.1159 1.85737 14.6024 1.85776 19.0886C1.85776 20.0259 2.45351 20.6261 3.38373 20.6265C5.93453 20.6265 8.48533 20.6265 11.0361 20.6265C11.8063 20.6265 12.5765 20.6324 13.3467 20.6246C14.0959 20.6171 14.6924 20.037 14.7422 19.2522L14.7418 19.2518ZM14.7492 1.40945C14.7492 2.07669 14.7551 2.6765 14.7477 3.27591C14.7395 3.93329 14.9634 4.50747 15.3442 5.02485C15.5844 5.35138 15.8893 5.53711 16.3196 5.51661C16.862 5.49058 17.4067 5.51069 17.9507 5.50951C18.0013 5.50951 18.0519 5.49886 18.1259 5.49058C17.0014 4.13126 15.8963 2.79599 14.7496 1.40945H14.7492Z" fill="#E2E8F0"/>
<path d="M11.6889 14.4467C10.6788 14.4467 9.6688 14.4479 8.65876 14.4464C8.36127 14.446 8.14205 14.3056 8.02213 14.0319C7.90921 13.7732 7.95554 13.5259 8.1366 13.3118C8.28418 13.1371 8.48315 13.0744 8.70509 13.0744C9.05826 13.0744 9.41142 13.0744 9.76458 13.0744C11.375 13.0744 12.9851 13.0732 14.5956 13.0768C14.728 13.0768 14.8674 13.087 14.9912 13.1292C15.2867 13.229 15.467 13.5531 15.4207 13.8623C15.37 14.1999 15.0971 14.4436 14.74 14.4452C13.723 14.4503 12.7059 14.4467 11.6889 14.4471V14.4467Z" fill="#E2E8F0"/>
<path d="M11.6863 11.0117C10.6692 11.0117 9.65219 11.0153 8.63514 11.0098C8.2995 11.0078 8.03667 10.7751 7.97476 10.4549C7.91713 10.1564 8.07327 9.83616 8.35829 9.71668C8.47822 9.6662 8.61762 9.64688 8.74923 9.64372C9.14444 9.63465 9.54005 9.64057 9.93566 9.64057C11.4893 9.64057 13.0433 9.63938 14.5969 9.64293C14.7293 9.64293 14.8683 9.65476 14.9925 9.69696C15.2869 9.79673 15.4671 10.1233 15.42 10.4316C15.3721 10.7459 15.1159 10.9928 14.8005 11.0074C14.5396 11.0196 14.278 11.0133 14.0167 11.0137C13.2399 11.0141 12.4631 11.0137 11.6859 11.0137V11.0121L11.6863 11.0117Z" fill="#E2E8F0"/>
</g>
<defs>
<clipPath id="clip0_1577_30753">
<rect width="19" height="22" fill="white" transform="translate(0.5)"/>
</clipPath>
</defs>
</svg>
