<svg width="20" height="21" viewBox="0 0 20 21" fill="none" xmlns="http://www.w3.org/2000/svg">
<path d="M10.0003 11.3346C10.4606 11.3346 10.8337 10.9615 10.8337 10.5013C10.8337 10.0411 10.4606 9.66797 10.0003 9.66797C9.54009 9.66797 9.16699 10.0411 9.16699 10.5013C9.16699 10.9615 9.54009 11.3346 10.0003 11.3346Z" stroke="#A0AEC0" stroke-width="2" stroke-linecap="round" stroke-linejoin="round"/>
<path d="M10.0003 17.1667C10.4606 17.1667 10.8337 16.7936 10.8337 16.3333C10.8337 15.8731 10.4606 15.5 10.0003 15.5C9.54009 15.5 9.16699 15.8731 9.16699 16.3333C9.16699 16.7936 9.54009 17.1667 10.0003 17.1667Z" stroke="#A0AEC0" stroke-width="2" stroke-linecap="round" stroke-linejoin="round"/>
<path d="M10.0003 5.50065C10.4606 5.50065 10.8337 5.12756 10.8337 4.66732C10.8337 4.20708 10.4606 3.83398 10.0003 3.83398C9.54009 3.83398 9.16699 4.20708 9.16699 4.66732C9.16699 5.12756 9.54009 5.50065 10.0003 5.50065Z" stroke="#A0AEC0" stroke-width="2" stroke-linecap="round" stroke-linejoin="round"/>
</svg>
