<svg width="20" height="21" viewBox="0 0 20 21" fill="none" xmlns="http://www.w3.org/2000/svg">
<path d="M14.8253 19.4577H5.17533C2.89199 19.4577 1.04199 17.5993 1.04199 15.316V9.14099C1.04199 8.00766 1.74199 6.58266 2.64199 5.88266L7.13366 2.38266C8.48366 1.33266 10.642 1.28266 12.042 2.26599L17.192 5.87433C18.1837 6.56599 18.9587 8.04933 18.9587 9.25766V15.3243C18.9587 17.5993 17.1087 19.4577 14.8253 19.4577ZM7.90033 3.36599L3.40866 6.86599C2.81699 7.33266 2.29199 8.39099 2.29199 9.14099V15.316C2.29199 16.9077 3.58366 18.2077 5.17533 18.2077H14.8253C16.417 18.2077 17.7087 16.916 17.7087 15.3243V9.25766C17.7087 8.45766 17.1337 7.34933 16.4753 6.89933L11.3253 3.29099C10.3753 2.62433 8.80866 2.65766 7.90033 3.36599Z" fill="#FAFAFA"/>
<path d="M10 16.125C9.65833 16.125 9.375 15.8417 9.375 15.5V13C9.375 12.6583 9.65833 12.375 10 12.375C10.3417 12.375 10.625 12.6583 10.625 13V15.5C10.625 15.8417 10.3417 16.125 10 16.125Z" fill="#FAFAFA"/>
</svg>
